HIERARCHY
ROOT Hips
{
	OFFSET 0.000000 0.000000 0.000000
	CHANNELS 6 Xposition Yposition Zposition Zrotation Xrotation Yrotation
	JOINT Spine
	{
		OFFSET 2.089184 22.611587 -0.081835
		CHANNELS 3 Zrotation Xrotation Yrotation
		JOINT Chest
		{
			OFFSET -1.058850 16.486247 -0.547396
			CHANNELS 3 Zrotation Xrotation Yrotation
			JOINT Neck
			{
				OFFSET -4.260954 3.227833 -6.834983
				CHANNELS 3 Zrotation Xrotation Yrotation
				JOINT Head
				{
					OFFSET 6.867407 20.963418 10.715176
					CHANNELS 3 Zrotation Xrotation Yrotation
					End Site
					{
						OFFSET 0.000000 -5.000000 0.000000
					}
				}
			}
			JOINT LeftShoulder
			{
				OFFSET 9.379009 6.758729 -8.214925
				CHANNELS 3 Zrotation Xrotation Yrotation
				JOINT LeftElbow
				{
					OFFSET 22.240808 -11.037397 -16.189927
					CHANNELS 3 Zrotation Xrotation Yrotation
					JOINT LeftWrist
					{
						OFFSET 19.730357 -3.386146 -11.384557
						CHANNELS 3 Zrotation Xrotation Yrotation
						End Site
						{
							OFFSET 0.000000 -5.000000 0.000000
						}
					}
				}
			}
			JOINT RightShoulder
			{
				OFFSET -10.633952 5.140754 3.169326
				CHANNELS 3 Zrotation Xrotation Yrotation
				JOINT RightElbow
				{
					OFFSET -27.985491 -6.245123 12.954552
					CHANNELS 3 Zrotation Xrotation Yrotation
					JOINT RightWrist
					{
						OFFSET -19.638723 1.655465 10.735642
						CHANNELS 3 Zrotation Xrotation Yrotation
						End Site
						{
							OFFSET 0.000000 -5.000000 0.000000
						}
					}
				}
			}
		}
	}
	JOINT LeftHip
	{
		OFFSET 12.020389 -2.055707 1.125010
		CHANNELS 3 Zrotation Xrotation Yrotation
		JOINT LeftKnee
		{
			OFFSET 2.191024 -47.345785 -6.770378
			CHANNELS 3 Zrotation Xrotation Yrotation
			JOINT LeftAnkle
			{
				OFFSET -6.350837 -36.296195 -8.811414
				CHANNELS 3 Zrotation Xrotation Yrotation
				JOINT LeftToe
				{
					OFFSET 3.708326 -5.865227 16.671398
					CHANNELS 3 Zrotation Xrotation Yrotation
					End Site
					{
						OFFSET 0.000000 -5.000000 0.000000
					}
				}
			}
		}
	}
	JOINT RightHip
	{
		OFFSET -5.556069 -3.071916 10.209932
		CHANNELS 3 Zrotation Xrotation Yrotation
		JOINT RightKnee
		{
			OFFSET -7.866699 -48.754304 -4.875458
			CHANNELS 3 Zrotation Xrotation Yrotation
			JOINT RightAnkle
			{
				OFFSET 4.050869 -39.197659 -3.157772
				CHANNELS 3 Zrotation Xrotation Yrotation
				JOINT RightToe
				{
					OFFSET 13.231054 -0.471575 12.318885
					CHANNELS 3 Zrotation Xrotation Yrotation
					End Site
					{
						OFFSET 0.000000 -5.000000 0.000000
					}
				}
			}
		}
	}
}
MOTION
Frames: 12
Frame Time: 0.010000
85.100543 97.529959 225.478510 0.138081 0.197794 167.224219 -6.179138 -2.991446 -0.560493 0.302029 -1.013813 -0.680976 2.950957 2.032592 -2.225283 -0.000000 0.000000 0.000000 -46.400356 -27.747390 -12.696378 -5.000000 -0.000000 -5.000000 -0.000000 0.000000 0.000000 62.095220 20.193972 -18.874128 5.000000 22.228946 5.000000 -0.000000 0.000000 0.000000 -2.973280 2.915678 0.634361 3.226684 0.000000 0.967202 4.637497 -1.753237 11.328931 -0.000000 0.000000 0.000000 1.668374 -1.602562 0.115515 -5.000000 5.255522 1.488839 1.646269 -1.751152 -3.385066 -0.000000 0.000000 0.000000
85.088605 97.517198 225.306348 0.159704 0.265555 167.383721 -5.927702 -3.077978 -0.555477 0.159768 -0.890193 -0.820563 3.002783 1.979021 -2.234608 -0.000000 0.000000 0.000000 -46.509675 -27.780391 -12.858642 -5.000000 -0.000000 -5.000000 -0.000000 0.000000 0.000000 62.090448 20.125330 -19.051638 5.000000 22.190588 5.000000 -0.000000 0.000000 0.000000 -2.986975 2.958465 0.639723 3.327912 0.000000 0.925418 4.262993 -1.785121 10.329979 -0.000000 0.000000 0.000000 1.419603 -1.242973 0.074227 -5.000000 4.893577 1.368145 1.560318 -1.668963 -3.428351 -0.000000 0.000000 0.000000
85.072772 97.502917 225.132196 0.209962 0.437389 167.524277 -5.651628 -2.957040 -0.524968 0.048323 -0.837793 -0.987424 3.004621 1.913344 -2.213009 -0.000000 0.000000 0.000000 -46.666021 -27.830902 -13.045096 -5.000000 -0.000000 -5.000000 -0.000000 0.000000 0.000000 62.001679 20.058713 -19.162458 5.000000 22.163571 5.000000 -0.000000 0.000000 0.000000 -2.996282 3.142623 0.654458 3.431319 0.000000 0.896107 3.883885 -1.564662 9.511278 -0.000000 0.000000 0.000000 1.171828 -0.791415 0.018650 -5.000000 4.563282 1.255891 1.493709 -1.604096 -3.444772 -0.000000 0.000000 0.000000
85.058542 97.483969 224.961816 0.206335 0.461413 167.642508 -5.442909 -3.173740 -0.536788 -0.087084 -0.633585 -1.010424 3.100453 1.902455 -2.260480 -0.000000 0.000000 0.000000 -46.737725 -27.843803 -13.248539 -5.000000 -0.000000 -5.000000 -0.000000 0.000000 0.000000 62.001647 19.996727 -19.326409 5.000000 22.128422 5.000000 -0.000000 0.000000 0.000000 -3.019133 3.167152 0.660109 3.539244 0.000000 0.865384 3.575607 -1.213445 8.970938 -0.000000 0.000000 0.000000 0.913572 -0.493427 -0.007822 -5.000000 4.217463 1.145060 1.432671 -1.544923 -3.464603 -0.000000 0.000000 0.000000
85.044760 97.463953 224.788275 0.241502 0.568211 167.764351 -5.180713 -3.196707 -0.523191 -0.158037 -0.592422 -1.107365 3.066066 1.867136 -2.229933 -0.000000 0.000000 0.000000 -46.846358 -27.884112 -13.310864 -5.000000 -0.000000 -5.000000 -0.000000 0.000000 0.000000 61.923962 19.886735 -19.561330 5.000000 22.325490 5.000000 -0.000000 0.000000 0.000000 -3.015481 3.305572 0.669400 3.592393 0.000000 0.836242 3.549645 -0.944669 9.112623 -0.000000 0.000000 0.000000 -0.000000 0.000000 0.000000 -4.873328 3.789815 0.947582 1.383183 -1.494970 -3.449086 -0.000000 0.000000 0.000000
85.034224 97.442189 224.616382 0.318241 0.689654 167.839562 -4.859672 -3.163894 -0.499902 -0.217134 -0.548866 -1.176340 3.023722 1.830311 -2.194637 -0.000000 0.000000 0.000000 -46.977874 -27.931081 -13.405194 -5.000000 -0.000000 -5.000000 -0.000000 0.000000 0.000000 61.793551 19.803446 -19.688205 5.000000 22.297602 5.000000 -0.000000 0.000000 0.000000 -2.966885 3.495331 0.674562 3.593191 0.000000 0.808998 3.600913 -0.649379 9.484704 -0.000000 0.000000 0.000000 -0.000000 0.000000 0.000000 -4.622430 3.866452 0.929755 1.336638 -1.453375 -3.522561 -0.000000 0.000000 0.000000
85.021179 97.418217 224.443695 0.372817 0.836594 167.936803 -4.589521 -3.059719 -0.472463 -0.208625 -0.600020 -1.224255 2.927598 1.824922 -2.141487 -0.000000 0.000000 0.000000 -47.117773 -27.990383 -13.397443 -5.000000 -0.000000 -5.000000 -0.000000 0.000000 0.000000 61.647331 19.693193 -19.876697 5.000000 22.263471 5.000000 -0.000000 0.000000 0.000000 -2.936744 3.738719 0.686593 3.570387 0.000000 0.797759 3.585815 -0.476862 9.582999 -0.000000 0.000000 0.000000 -0.000000 0.000000 0.000000 -4.457390 4.111373 0.945462 1.367392 -1.490678 -3.633479 -0.000000 0.000000 0.000000
85.012120 97.393752 224.270612 0.446917 0.951040 168.049861 -4.260453 -3.066001 -0.453240 -0.301690 -0.496187 -1.287759 2.884239 1.783325 -2.104076 -0.000000 0.000000 0.000000 -47.242675 -28.034286 -13.491043 -5.000000 -0.000000 -5.000000 -0.000000 0.000000 0.000000 61.533761 19.631713 -19.959403 5.000000 22.243288 5.000000 -0.000000 0.000000 0.000000 -2.855121 3.979839 0.689195 3.519212 0.000000 0.822857 3.566451 -0.381942 9.607631 -0.000000 0.000000 0.000000 0.163191 0.962853 -0.172948 -4.392402 3.230559 0.813262 1.331997 -1.448357 -3.515667 -0.000000 0.000000 0.000000
85.000082 97.370016 224.097913 0.453784 1.096055 168.160124 -4.086472 -3.009259 -0.437061 -0.348943 -0.450712 -1.329450 2.863645 1.781367 -2.092427 -0.000000 0.000000 0.000000 -47.278914 -28.044714 -13.543342 -5.000000 -0.000000 -5.000000 -0.000000 0.000000 0.000000 61.470368 19.586809 -20.034253 5.000000 22.207812 5.000000 -0.000000 0.000000 0.000000 -2.849450 4.219653 0.704997 3.428292 0.000000 0.832905 3.567587 -0.368319 9.621740 -0.000000 0.000000 0.000000 -0.076114 1.373789 -0.212875 -4.005387 2.900686 0.725225 1.294791 -1.410426 -3.497982 -0.000000 0.000000 0.000000
84.988890 97.348784 223.929388 0.454239 1.211905 168.298011 -3.933288 -2.993537 -0.426340 -0.354272 -0.509343 -1.416500 2.784477 1.793581 -2.054430 -0.000000 0.000000 0.000000 -47.289188 -28.058142 -13.442214 -5.000000 -0.000000 -5.000000 -0.000000 0.000000 0.000000 61.432076 19.501651 -20.235749 5.000000 22.168993 5.000000 -0.000000 0.000000 0.000000 -2.857812 4.422067 0.720693 3.380309 0.000000 0.832891 3.539757 -0.376180 9.540285 -0.000000 0.000000 0.000000 -0.307157 1.748415 -0.246250 -3.603711 2.606196 0.642701 1.218014 -1.338461 -3.567377 -0.000000 0.000000 0.000000
84.971896 97.328743 223.756445 0.436245 1.361166 168.464201 -3.796741 -2.930427 -0.412037 -0.403868 -0.541080 -1.562922 2.717860 1.818253 -2.027387 -0.000000 0.000000 0.000000 -47.266866 -28.056614 -13.355627 -5.000000 -0.000000 -5.000000 -0.000000 0.000000 0.000000 61.411446 19.444726 -20.374269 5.000000 22.139490 5.000000 -0.000000 0.000000 0.000000 -2.908276 4.632760 0.744699 3.373090 0.000000 0.823941 3.509495 -0.436990 9.409550 -0.000000 0.000000 0.000000 -0.550418 2.166857 -0.283464 -3.238702 2.298406 0.564258 1.132234 -1.258473 -3.655743 -0.000000 0.000000 0.000000
84.955338 97.305899 223.589417 0.412383 1.503297 168.610576 -3.662567 -2.884413 -0.399672 -0.476089 -0.522315 -1.692619 2.651991 1.812199 -1.990233 -0.000000 0.000000 0.000000 -47.233282 -28.055281 -13.213979 -5.000000 -0.000000 -5.000000 -0.000000 0.000000 0.000000 61.360451 19.419439 -20.406057 5.000000 22.120496 5.000000 -0.000000 0.000000 0.000000 -2.986700 4.865094 0.775589 3.398798 0.000000 0.820647 3.473345 -0.436552 9.312398 -0.000000 0.000000 0.000000 -0.792789 2.566760 -0.316122 -2.881663 1.993062 0.488908 1.070873 -1.201120 -3.719276 -0.000000 0.000000 0.000000
